<?xml version="1.0" encoding="utf-8"?>
<svg xmlns="http://www.w3.org/2000/svg" style="margin: auto; background: rgb(255, 251, 243); display: block; shape-rendering: auto;" width="280" height="250" preserveAspectRatio="xMidYMid">
<style type="text/css">
  text {
    text-anchor: middle; font-size: 80px; opacity: 0;
  }
</style>
<g style="transform-origin:140px 125px;transform:scale(1)">
<g transform="translate(140,125)">
  <g transform="translate(0,0)"><g class="path" style="transform: scale(0.91); transform-origin: -107.44px -5.4186px; animation: 1s linear -0.5775s infinite normal forwards running breath-970390a8-34da-4fe2-b589-df60d998cb83;"><path d="M7.04 0L7.04-54.56L13.76-54.56L13.76-6.40L38.56-6.40L38.56 0L7.04 0" fill="#51cc66" stroke="none" stroke-width="none" transform="translate(-130.23998069763184,21.861401121616364)" style="fill: rgb(81, 204, 102);"></path></g><g class="path" style="transform: scale(0.91); transform-origin: -67.84px 1.8614px; animation: 1s linear -0.495s infinite normal forwards running breath-970390a8-34da-4fe2-b589-df60d998cb83;"><path d="M49.76-19.92L49.76-19.92L49.76-19.92Q49.76-12.16 53.24-8.36L53.24-8.36L53.24-8.36Q56.72-4.56 62.64-4.56L62.64-4.56L62.64-4.56Q68.48-4.56 71.76-8.32L71.76-8.32L71.76-8.32Q75.04-12.08 75.04-19.60L75.04-19.60L75.04-19.60Q75.04-27.60 71.56-31.52L71.56-31.52L71.56-31.52Q68.08-35.44 62.08-35.44L62.08-35.44L62.08-35.44Q56.08-35.44 52.92-31.56L52.92-31.56L52.92-31.56Q49.76-27.68 49.76-19.92zM42.96-20L42.96-20L42.96-20Q42.96-26.08 44.88-30.12L44.88-30.12L44.88-30.12Q46.80-34.16 49.76-36.60L49.76-36.60L49.76-36.60Q52.72-39.04 56.12-40.04L56.12-40.04L56.12-40.04Q59.52-41.04 62.56-41.04L62.56-41.04L62.56-41.04Q65.44-41.04 68.84-40.12L68.84-40.12L68.84-40.12Q72.24-39.20 75.12-36.84L75.12-36.84L75.12-36.84Q78-34.48 79.92-30.52L79.92-30.52L79.92-30.52Q81.84-26.56 81.84-20.48L81.84-20.48L81.84-20.48Q81.84-14.16 79.88-10L79.88-10L79.88-10Q77.92-5.84 74.96-3.40L74.96-3.40L74.96-3.40Q72-0.96 68.56 0.04L68.56 0.04L68.56 0.04Q65.12 1.04 62.16 1.04L62.16 1.04L62.16 1.04Q59.12 1.04 55.76 0.08L55.76 0.08L55.76 0.08Q52.40-0.88 49.56-3.24L49.56-3.24L49.56-3.24Q46.72-5.60 44.84-9.68L44.84-9.68L44.84-9.68Q42.96-13.76 42.96-20" fill="#51cc66" stroke="none" stroke-width="none" transform="translate(-130.23998069763184,21.861401121616364)" style="fill: rgb(81, 204, 102);"></path></g><g class="path" style="transform: scale(0.91); transform-origin: -26.16px 1.8614px; animation: 1s linear -0.4125s infinite normal forwards running breath-970390a8-34da-4fe2-b589-df60d998cb83;"><path d="M113.52-9.36L113.52-18.48L113.52-18.48Q111.92-18.40 110.48-18.32L110.48-18.32L110.48-18.32Q109.04-18.24 107.64-18.12L107.64-18.12L107.64-18.12Q106.24-18 105.12-17.84L105.12-17.84L105.12-17.84Q99.36-17.12 96.96-15.32L96.96-15.32L96.96-15.32Q94.56-13.52 94.56-10.16L94.56-10.16L94.56-10.16Q94.56-7.36 96.28-5.96L96.28-5.96L96.28-5.96Q98.00-4.56 100.80-4.56L100.80-4.56L100.80-4.56Q104.64-4.56 107.64-5.88L107.64-5.88L107.64-5.88Q110.64-7.20 113.52-9.36L113.52-9.36zM114.24 0.64L113.44-3.76L113.44-3.76Q109.68-1.60 106.44-0.28L106.44-0.28L106.44-0.28Q103.20 1.04 99.44 1.04L99.44 1.04L99.44 1.04Q94.08 1.04 90.92-1.56L90.92-1.56L90.92-1.56Q87.76-4.16 87.76-10.16L87.76-10.16L87.76-10.16Q87.76-13.28 89.36-15.60L89.36-15.60L89.36-15.60Q90.96-17.92 93.56-19.48L93.56-19.48L93.56-19.48Q96.16-21.04 99.44-21.92L99.44-21.92L99.44-21.92Q102.72-22.80 106.16-23.04L106.16-23.04L106.16-23.04Q107.60-23.20 109.92-23.32L109.92-23.32L109.92-23.32Q112.24-23.44 113.52-23.52L113.52-23.52L113.52-23.52Q113.52-26.32 113.36-28.52L113.36-28.52L113.36-28.52Q113.20-30.72 112.40-32.28L112.40-32.28L112.40-32.28Q111.60-33.84 110.04-34.64L110.04-34.64L110.04-34.64Q108.48-35.44 105.60-35.44L105.60-35.44L105.60-35.44Q103.28-35.44 101.12-35.16L101.12-35.16L101.12-35.16Q98.96-34.88 97.28-34.56L97.28-34.56L97.28-34.56Q95.28-34.16 93.60-33.68L93.60-33.68L92.32-39.20L92.32-39.20Q94.32-39.68 96.64-40.08L96.64-40.08L96.64-40.08Q98.64-40.48 101.28-40.76L101.28-40.76L101.28-40.76Q103.92-41.04 106.96-41.04L106.96-41.04L106.96-41.04Q111.04-41.04 113.56-39.84L113.56-39.84L113.56-39.84Q116.08-38.64 117.48-36.60L117.48-36.60L117.48-36.60Q118.88-34.56 119.40-31.96L119.40-31.96L119.40-31.96Q119.92-29.36 119.92-26.48L119.92-26.48L119.92-7.28L119.92-7.28Q119.92-6.16 119.96-4.92L119.96-4.92L119.96-4.92Q120.00-3.68 120.12-2.48L120.12-2.48L120.12-2.48Q120.24-1.28 120.40 0L120.40 0L114.24 0.64" fill="#51cc66" stroke="none" stroke-width="none" transform="translate(-130.23998069763184,21.861401121616364)" style="fill: rgb(81, 204, 102);"></path></g><g class="path" style="transform: scale(0.91); transform-origin: 15.88px -7.9386px; animation: 1s linear -0.33s infinite normal forwards running breath-970390a8-34da-4fe2-b589-df60d998cb83;"><path d="M156.32-8.80L156.32-34.24L156.32-34.24Q153.44-35.04 151.84-35.24L151.84-35.24L151.84-35.24Q150.24-35.44 148.56-35.44L148.56-35.44L148.56-35.44Q145.20-35.44 142.80-34.24L142.80-34.24L142.80-34.24Q140.40-33.04 138.84-30.92L138.84-30.92L138.84-30.92Q137.28-28.80 136.56-26.04L136.56-26.04L136.56-26.04Q135.84-23.28 135.84-20.16L135.84-20.16L135.84-20.16Q135.84-17.36 136.44-14.56L136.44-14.56L136.44-14.56Q137.04-11.76 138.32-9.52L138.32-9.52L138.32-9.52Q139.60-7.28 141.44-5.92L141.44-5.92L141.44-5.92Q143.28-4.56 145.84-4.56L145.84-4.56L145.84-4.56Q147.60-4.56 149.48-5.20L149.48-5.20L149.48-5.20Q151.36-5.84 152.96-6.68L152.96-6.68L152.96-6.68Q154.56-7.52 156.32-8.80L156.32-8.80zM157.04 0.64L156.40-3.20L156.40-3.20Q154.56-1.92 152.84-1.08L152.84-1.08L152.84-1.08Q151.12-0.24 149.08 0.40L149.08 0.40L149.08 0.40Q147.04 1.04 145.12 1.04L145.12 1.04L145.12 1.04Q137.60 1.04 133.32-4.28L133.32-4.28L133.32-4.28Q129.04-9.60 129.04-19.84L129.04-19.84L129.04-19.84Q129.04-25.92 131-30L131-30L131-30Q132.96-34.08 135.92-36.52L135.92-36.52L135.92-36.52Q138.88-38.96 142.28-40L142.28-40L142.28-40Q145.68-41.04 148.56-41.04L148.56-41.04L148.56-41.04Q150-41.04 151.60-40.84L151.60-40.84L151.60-40.84Q153.20-40.64 156.32-39.84L156.32-39.84L156.32-59.92L162.72-60.64L162.72-7.28L162.72-7.28Q162.72-6.16 162.76-4.92L162.76-4.92L162.76-4.92Q162.80-3.68 162.92-2.48L162.92-2.48L162.92-2.48Q163.04-1.28 163.20 0L163.20 0L157.04 0.64" fill="#51cc66" stroke="none" stroke-width="none" transform="translate(-130.23998069763184,21.861401121616364)" style="fill: rgb(81, 204, 102);"></path></g><g class="path" style="transform: scale(0.91); transform-origin: 47.28px 1.3414px; animation: 1s linear -0.2475s infinite normal forwards running breath-970390a8-34da-4fe2-b589-df60d998cb83;"><path d="M174.32 0L174.32-40.32L180.72-41.04L180.72 0L174.32 0" fill="#51cc66" stroke="none" stroke-width="none" transform="translate(-130.23998069763184,21.861401121616364)" style="fill: rgb(81, 204, 102);"></path></g><g class="path" style="transform: scale(0.91); transform-origin: 47.48px -29.8986px; animation: 1s linear -0.165s infinite normal forwards running breath-970390a8-34da-4fe2-b589-df60d998cb83;"><path d="M173.28-51.76L173.28-51.76L173.28-51.76Q173.28-53.60 174.52-54.84L174.52-54.84L174.52-54.84Q175.76-56.08 177.60-56.08L177.60-56.08L177.60-56.08Q179.52-56.08 180.84-54.84L180.84-54.84L180.84-54.84Q182.16-53.60 182.16-51.76L182.16-51.76L182.16-51.76Q182.16-49.92 180.84-48.68L180.84-48.68L180.84-48.68Q179.52-47.44 177.60-47.44L177.60-47.44L177.60-47.44Q175.76-47.44 174.52-48.68L174.52-48.68L174.52-48.68Q173.28-49.92 173.28-51.76" fill="#51cc66" stroke="none" stroke-width="none" transform="translate(-130.23998069763184,21.861401121616364)" style="fill: rgb(81, 204, 102);"></path></g><g class="path" style="transform: scale(0.91); transform-origin: 78.08px 1.3414px; animation: 1s linear -0.0825s infinite normal forwards running breath-970390a8-34da-4fe2-b589-df60d998cb83;"><path d="M192.32 0L192.32-32.24L192.32-32.24Q192.40-33.92 191.92-39.52L191.92-39.52L197.84-40.32L198.72-35.20L198.72-35.20Q201.12-36.80 203.48-38L203.48-38L203.48-38Q205.84-39.20 208.32-40.12L208.32-40.12L208.32-40.12Q210.80-41.04 213.12-41.04L213.12-41.04L213.12-41.04Q216.40-41.04 218.60-40.28L218.60-40.28L218.60-40.28Q220.80-39.52 222.16-37.76L222.16-37.76L222.16-37.76Q223.52-36 224.12-33.12L224.12-33.12L224.12-33.12Q224.72-30.24 224.72-25.92L224.72-25.92L224.72 0L218.32 0L218.32-25.20L218.32-25.20Q218.32-27.60 218.24-29.48L218.24-29.48L218.24-29.48Q218.16-31.36 217.56-32.68L217.56-32.68L217.56-32.68Q216.96-34 215.72-34.72L215.72-34.72L215.72-34.72Q214.48-35.44 212.24-35.44L212.24-35.44L212.24-35.44Q210.16-35.44 207.84-34.52L207.84-34.52L207.84-34.52Q205.52-33.60 203.28-32.40L203.28-32.40L203.28-32.40Q201.04-31.20 198.72-29.60L198.72-29.60L198.72 0L192.32 0" fill="#51cc66" stroke="none" stroke-width="none" transform="translate(-130.23998069763184,21.861401121616364)" style="fill: rgb(81, 204, 102);"></path></g><g class="path" style="transform: scale(0.91); transform-origin: 120.44px 11.0614px; animation: 1s linear 0s infinite normal forwards running breath-970390a8-34da-4fe2-b589-df60d998cb83;"><path d="M267.52-39.28L267.52 3.84L267.52 3.84Q267.52 6.80 266.88 9.60L266.88 9.60L266.88 9.60Q266.24 12.40 264.44 14.60L264.44 14.60L264.44 14.60Q262.64 16.80 259.40 18.12L259.40 18.12L259.40 18.12Q256.16 19.44 250.88 19.44L250.88 19.44L250.88 19.44Q247.52 19.36 245.04 19.04L245.04 19.04L245.04 19.04Q242.56 18.72 240.32 18.12L240.32 18.12L240.32 18.12Q238.08 17.52 236.24 16.72L236.24 16.72L237.92 11.12L237.92 11.12Q241.04 12.48 244.28 13.20L244.28 13.20L244.28 13.20Q247.52 13.92 250.08 13.92L250.08 13.92L250.08 13.92Q252.88 13.92 254.96 13.36L254.96 13.36L254.96 13.36Q257.04 12.80 258.44 11.48L258.44 11.48L258.44 11.48Q259.84 10.16 260.52 8L260.52 8L260.52 8Q261.20 5.84 261.20 2.64L261.20 2.64L261.20-3.20L261.20-3.20Q259.52-2.08 257.72-1.16L257.72-1.16L257.72-1.16Q255.92-0.24 253.88 0.40L253.88 0.40L253.88 0.40Q251.84 1.04 249.92 1.04L249.92 1.04L249.92 1.04Q242.48 1.04 238.16-4.20L238.16-4.20L238.16-4.20Q233.84-9.44 233.84-19.84L233.84-19.84L233.84-19.84Q233.84-25.84 235.72-29.88L235.72-29.88L235.72-29.88Q237.60-33.92 240.48-36.40L240.48-36.40L240.48-36.40Q243.36-38.88 246.80-39.96L246.80-39.96L246.80-39.96Q250.24-41.04 253.36-41.04L253.36-41.04L253.36-41.04Q257.44-41.04 260.84-40.36L260.84-40.36L260.84-40.36Q264.24-39.68 267.52-39.28L267.52-39.28zM250.64-4.56L250.64-4.56L250.64-4.56Q252.40-4.56 254.24-5.20L254.24-5.20L254.24-5.20Q256.08-5.84 257.80-6.72L257.80-6.72L257.80-6.72Q259.52-7.60 261.20-8.80L261.20-8.80L261.20-34.32L261.20-34.32Q260.24-34.56 258.96-34.88L258.96-34.88L258.96-34.88Q257.84-35.04 256.40-35.24L256.40-35.24L256.40-35.24Q254.96-35.44 253.36-35.44L253.36-35.44L253.36-35.44Q250-35.44 247.60-34.24L247.60-34.24L247.60-34.24Q245.20-33.04 243.64-30.96L243.64-30.96L243.64-30.96Q242.08-28.88 241.36-26.08L241.36-26.08L241.36-26.08Q240.64-23.28 240.64-20.16L240.64-20.16L240.64-20.16Q240.64-17.36 241.24-14.56L241.24-14.56L241.24-14.56Q241.84-11.76 243.12-9.52L243.12-9.52L243.12-9.52Q244.40-7.28 246.24-5.92L246.24-5.92L246.24-5.92Q248.08-4.56 250.64-4.56" fill="#51cc66" stroke="none" stroke-width="none" transform="translate(-130.23998069763184,21.861401121616364)" style="fill: rgb(81, 204, 102);"></path></g></g>
</g>
</g>
<style id="breath-970390a8-34da-4fe2-b589-df60d998cb83" data-anikit="">@keyframes breath-970390a8-34da-4fe2-b589-df60d998cb83
{
  0% {
    animation-timing-function: cubic-bezier(0.9647,0.2413,-0.0705,0.7911);
    transform: scale(0.9099999999999999);
  }
  51% {
    animation-timing-function: cubic-bezier(0.9226,0.2631,-0.0308,0.7628);
    transform: scale(1.02994);
  }
  100% {
    transform: scale(0.9099999999999999);
  }
}</style></svg>